<svg width="48" height="50" viewBox="0 0 48 50" fill="none" xmlns="http://www.w3.org/2000/svg">
<rect y="13.7681" width="36.2319" height="36.2319" rx="6" fill="#171625"/>
<mask id="path-2-outside-1_26_138" maskUnits="userSpaceOnUse" x="8.59418" y="0" width="40" height="40" fill="black">
<rect fill="white" x="8.59418" width="40" height="40"/>
<path d="M11.5942 5.99999C11.5942 2.68629 14.2805 0 17.5942 0H41.8261C45.1398 0 47.8261 2.68629 47.8261 6V30.2319C47.8261 33.5456 45.1398 36.2319 41.8261 36.2319H17.5942C14.2805 36.2319 11.5942 33.5456 11.5942 30.2319V5.99999Z"/>
</mask>
<path d="M11.5942 5.99999C11.5942 2.68629 14.2805 0 17.5942 0H41.8261C45.1398 0 47.8261 2.68629 47.8261 6V30.2319C47.8261 33.5456 45.1398 36.2319 41.8261 36.2319H17.5942C14.2805 36.2319 11.5942 33.5456 11.5942 30.2319V5.99999Z" fill="#171625"/>
<path d="M11.5942 0H47.8261H11.5942ZM47.8261 30.2319C47.8261 35.2024 43.7966 39.2319 38.8261 39.2319H17.5942C12.6236 39.2319 8.59418 35.2024 8.59418 30.2319H14.5942C14.5942 31.8887 15.9373 33.2319 17.5942 33.2319H41.8261C45.1398 33.2319 47.8261 31.8887 47.8261 30.2319ZM17.5942 39.2319C12.6236 39.2319 8.59418 35.2024 8.59418 30.2319V9C8.59418 4.02944 12.6236 0 17.5942 0C15.9373 0 14.5942 2.68629 14.5942 6V30.2319C14.5942 31.8887 15.9373 33.2319 17.5942 33.2319V39.2319ZM47.8261 0V36.2319V0Z" fill="white" mask="url(#path-2-outside-1_26_138)"/>
</svg>
