<svg width="40" height="40" viewBox="0 0 40 40" fill="none" xmlns="http://www.w3.org/2000/svg">
<path d="M40 20C40 31.0457 31.0457 40 20 40C8.9543 40 0 31.0457 0 20C0 8.9543 8.9543 0 20 0C31.0457 0 40 8.9543 40 20Z" fill="#171625"/>
<path d="M20 16.4C19.0452 16.4 18.1295 16.7793 17.4544 17.4544C16.7793 18.1295 16.4 19.0452 16.4 20C16.4 20.9548 16.7793 21.8705 17.4544 22.5456C18.1295 23.2207 19.0452 23.6 20 23.6C20.9548 23.6 21.8705 23.2207 22.5456 22.5456C23.2207 21.8705 23.6 20.9548 23.6 20C23.6 19.0452 23.2207 18.1295 22.5456 17.4544C21.8705 16.7793 20.9548 16.4 20 16.4ZM20 14C21.5913 14 23.1174 14.6321 24.2426 15.7574C25.3679 16.8826 26 18.4087 26 20C26 21.5913 25.3679 23.1174 24.2426 24.2426C23.1174 25.3679 21.5913 26 20 26C18.4087 26 16.8826 25.3679 15.7574 24.2426C14.6321 23.1174 14 21.5913 14 20C14 18.4087 14.6321 16.8826 15.7574 15.7574C16.8826 14.6321 18.4087 14 20 14ZM27.8 13.7C27.8 14.0978 27.642 14.4794 27.3607 14.7607C27.0794 15.042 26.6978 15.2 26.3 15.2C25.9022 15.2 25.5206 15.042 25.2393 14.7607C24.958 14.4794 24.8 14.0978 24.8 13.7C24.8 13.3022 24.958 12.9206 25.2393 12.6393C25.5206 12.358 25.9022 12.2 26.3 12.2C26.6978 12.2 27.0794 12.358 27.3607 12.6393C27.642 12.9206 27.8 13.3022 27.8 13.7ZM20 10.4C17.0312 10.4 16.5464 10.4084 15.1652 10.4696C14.2244 10.514 13.5932 10.64 13.0076 10.868C12.4868 11.0696 12.1112 11.3108 11.7116 11.7116C11.336 12.0745 11.0472 12.5175 10.8668 13.0076C10.6388 13.5956 10.5128 14.2256 10.4696 15.1652C10.4072 16.49 10.4 16.9532 10.4 20C10.4 22.9688 10.4084 23.4536 10.4696 24.8348C10.514 25.7744 10.64 26.4068 10.8668 26.9912C11.0708 27.5132 11.3108 27.8888 11.7092 28.2872C12.1136 28.6904 12.4892 28.9316 13.0052 29.1308C13.598 29.36 14.2292 29.4872 15.1652 29.5304C16.49 29.5928 16.9532 29.6 20 29.6C22.9688 29.6 23.4536 29.5916 24.8348 29.5304C25.7732 29.486 26.4056 29.36 26.9912 29.1332C27.5108 28.9304 27.8888 28.6892 28.2872 28.2908C28.6916 27.8864 28.9328 27.5108 29.132 26.9948C29.36 26.4032 29.4872 25.7708 29.5304 24.8348C29.5928 23.51 29.6 23.0468 29.6 20C29.6 17.0312 29.5916 16.5464 29.5304 15.1652C29.486 14.2268 29.36 13.5932 29.132 13.0076C28.9512 12.518 28.6629 12.0752 28.2884 11.7116C27.9257 11.3358 27.4826 11.047 26.9924 10.8668C26.4044 10.6388 25.7732 10.5128 24.8348 10.4696C23.51 10.4072 23.0468 10.4 20 10.4ZM20 8C23.2604 8 23.6672 8.012 24.9464 8.072C26.2244 8.132 27.0944 8.3324 27.86 8.63C28.652 8.9348 29.3192 9.3476 29.9864 10.0136C30.5966 10.6135 31.0687 11.3391 31.37 12.14C31.6664 12.9044 31.868 13.7756 31.928 15.0536C31.9844 16.3328 32 16.7396 32 20C32 23.2604 31.988 23.6672 31.928 24.9464C31.868 26.2244 31.6664 27.0944 31.37 27.86C31.0696 28.6613 30.5973 29.3871 29.9864 29.9864C29.3864 30.5964 28.6608 31.0685 27.86 31.37C27.0956 31.6664 26.2244 31.868 24.9464 31.928C23.6672 31.9844 23.2604 32 20 32C16.7396 32 16.3328 31.988 15.0536 31.928C13.7756 31.868 12.9056 31.6664 12.14 31.37C11.3388 31.0694 10.613 30.5971 10.0136 29.9864C9.40329 29.3866 8.93112 28.661 8.63 27.86C8.3324 27.0956 8.132 26.2244 8.072 24.9464C8.0156 23.6672 8 23.2604 8 20C8 16.7396 8.012 16.3328 8.072 15.0536C8.132 13.7744 8.3324 12.9056 8.63 12.14C8.93028 11.3386 9.40257 10.6128 10.0136 10.0136C10.6132 9.40308 11.3389 8.93087 12.14 8.63C12.9056 8.3324 13.7744 8.132 15.0536 8.072C16.3328 8.0156 16.7396 8 20 8Z" fill="white"/>
</svg>
