<svg width="50" height="50" viewBox="0 0 50 50" fill="none" xmlns="http://www.w3.org/2000/svg">
<g clip-path="url(#clip0_26_116)">
<path d="M23.2142 6.86427C23.2142 6.12765 23.2142 0.740355 23.2142 0.00012207H5.35712C2.40322 0.00012207 0 0.00012207 0 5.35724V23.2143C0.812401 23.2143 8.29793 23.2143 9.26785 23.2143C10.4846 23.2143 11.3507 24.4111 10.9601 25.5702C10.864 25.8554 9.86561 27.2151 10.8221 28.8716C11.9698 30.8591 14.8166 30.8585 15.9636 28.8716C16.4994 27.9438 16.5122 26.8299 15.9713 25.8929C15.2843 24.7029 16.1463 23.2143 17.5178 23.2143H23.2142V19.9216C23.1318 19.9292 23.0492 19.9351 22.9668 19.9395C19.426 20.1275 16.0715 17.3397 16.0715 13.3929C16.0714 9.36319 19.5731 6.5298 23.2142 6.86427Z" fill="#171625"/>
<path d="M44.6428 0.00012207H26.7857C26.7857 0.812523 26.7857 8.29806 26.7857 9.26798C26.7857 10.6419 25.295 11.5004 24.1073 10.8146C22.1623 9.6921 19.6428 11.0633 19.6428 13.393C19.6428 15.7254 22.164 17.093 24.1073 15.9714C25.2974 15.2845 26.7857 16.1464 26.7857 17.518V23.2143H30.0784C29.9566 21.8857 30.2507 20.5425 30.9436 19.3425C33.4656 14.9746 39.7552 14.9859 42.2707 19.3425C42.9575 20.5317 43.2584 21.8785 43.1359 23.2142C43.8726 23.2142 49.2599 23.2142 50.0001 23.2142V5.35724C49.9999 2.40324 50.0001 0.00012207 44.6428 0.00012207Z" fill="#171625"/>
<path d="M40.7321 26.7857C39.3581 26.7857 38.4999 25.295 39.1855 24.1073C39.7328 23.159 39.7072 22.0452 39.1779 21.1285C38.0431 19.1632 35.19 19.1306 34.0365 21.1285C33.5102 22.0399 33.4795 23.1558 34.0288 24.1073C34.7177 25.3008 33.8498 26.7857 32.4821 26.7857H26.7857V30.0771C28.1047 29.956 29.4492 30.2444 30.6575 30.9422C35.026 33.4646 35.0149 39.7535 30.6575 42.2694C29.4492 42.9671 28.1046 43.2558 26.7857 43.1346C26.7857 43.8714 26.7857 49.2604 26.7857 49.9998H44.6428C47.5967 49.9998 50.5 49.9998 49.9999 44.6427V26.7857C49.1875 26.7857 41.702 26.7857 40.7321 26.7857Z" fill="#171625"/>
<path d="M28.8715 34.0351C27.1887 33.0633 25.9018 34.089 25.4583 34.2068C24.3235 34.5082 23.2143 33.6498 23.2143 32.4808V26.7857H19.9215C20.0426 28.1046 19.7542 29.4492 19.0564 30.6575C16.5364 35.0221 10.2477 35.0196 7.72918 30.6575C7.03143 29.4492 6.74296 28.1046 6.86405 26.7857C6.12743 26.7857 0.740233 26.7857 0 26.7857V44.6428C0 49.9999 2.40322 49.9999 5.35712 49.9999H23.2142C23.2142 49.1929 23.2142 41.6989 23.2142 40.7309C23.2142 39.357 24.7049 38.4985 25.8926 39.1843C26.8369 39.7294 27.9507 39.7082 28.8714 39.1766C30.8712 38.022 30.838 35.1706 28.8715 34.0351Z" fill="#171625"/>
</g>
<defs>
<clipPath id="clip0_26_116">
<rect width="50" height="50" fill="white"/>
</clipPath>
</defs>
</svg>
