<svg width="50" height="51" viewBox="0 0 50 51" fill="none" xmlns="http://www.w3.org/2000/svg">
<path d="M44.1594 21.8908L21.3916 5.92464C20.7886 5.50167 20.0006 5.44996 19.3477 5.78963C18.6946 6.1294 18.2848 6.80443 18.2848 7.54057V16.5684L3.10677 5.92464C2.50396 5.50187 1.71601 5.44977 1.06297 5.78963C0.409723 6.1294 0 6.80443 0 7.54057V39.4729C0 40.209 0.409723 40.8842 1.06297 41.2238C1.34956 41.3729 1.66195 41.4466 1.97346 41.4466C2.3718 41.4466 2.76858 41.3261 3.10687 41.0888L18.2849 30.445V39.4729C18.2849 40.209 18.6946 40.8842 19.3478 41.2238C19.6344 41.3729 19.9469 41.4466 20.2584 41.4466C20.6568 41.4466 21.0535 41.3261 21.3918 41.0888L44.1596 25.1227C44.6863 24.7533 45 24.1502 45 23.5067C44.9998 22.8633 44.6861 22.2602 44.1594 21.8908Z" fill="#171625"/>
</svg>
