<svg width="40" height="40" viewBox="0 0 40 40" fill="none" xmlns="http://www.w3.org/2000/svg">
<path d="M40 20C40 31.0457 31.0457 40 20 40C8.9543 40 0 31.0457 0 20C0 8.9543 8.9543 0 20 0C31.0457 0 40 8.9543 40 20Z" fill="#171625"/>
<path fill-rule="evenodd" clip-rule="evenodd" d="M28.6126 12.3424C26.4602 10.1882 23.5976 9.00121 20.5479 9C14.264 9 9.14964 14.1124 9.14713 20.3963C9.14629 22.405 9.67129 24.3658 10.6689 26.0941L9.05154 32L15.0952 30.4152C16.7604 31.3231 18.6352 31.8016 20.5433 31.8024H20.548C26.8313 31.8024 31.946 26.6894 31.9486 20.4054C31.9498 17.3601 30.7651 14.4966 28.6126 12.3424ZM20.548 29.8775H20.5441C18.8438 29.8768 17.1761 29.4202 15.7213 28.5571L15.3752 28.3518L11.7888 29.2923L12.7461 25.7967L12.5208 25.4383C11.5723 23.9301 11.0713 22.1868 11.072 20.397C11.0741 15.1741 15.325 10.9249 20.5518 10.9249C23.0827 10.9258 25.4619 11.9125 27.2509 13.703C29.04 15.4935 30.0247 17.8735 30.0237 20.4047C30.0216 25.628 25.7708 29.8775 20.548 29.8775ZM25.7457 22.7829C25.4608 22.6404 24.0603 21.9514 23.7991 21.8564C23.538 21.7614 23.3481 21.7139 23.1582 21.999C22.9683 22.284 22.4224 22.9255 22.2562 23.1155C22.09 23.3056 21.9239 23.3294 21.639 23.1868C21.3542 23.0443 20.4363 22.7436 19.3482 21.7734C18.5014 21.0183 17.9297 20.0857 17.7635 19.8006C17.5973 19.5155 17.7458 19.3614 17.8884 19.2194C18.0166 19.0918 18.1733 18.8868 18.3157 18.7205C18.4581 18.5542 18.5056 18.4354 18.6005 18.2454C18.6955 18.0553 18.648 17.889 18.5768 17.7465C18.5056 17.604 17.9359 16.2023 17.6985 15.6321C17.4673 15.0768 17.2324 15.1519 17.0576 15.1432C16.8916 15.135 16.7015 15.1332 16.5116 15.1332C16.3217 15.1332 16.0131 15.2045 15.752 15.4896C15.4909 15.7747 14.755 16.4636 14.755 17.8653C14.755 19.2669 15.7757 20.621 15.9182 20.8111C16.0606 21.0012 17.9269 23.8776 20.7844 25.1111C21.4641 25.4045 21.9947 25.5797 22.4084 25.711C23.0908 25.9277 23.7118 25.8971 24.2027 25.8238C24.75 25.7421 25.888 25.1349 26.1254 24.4697C26.3628 23.8045 26.3628 23.2343 26.2916 23.1155C26.2204 22.9968 26.0305 22.9255 25.7457 22.7829Z" fill="white"/>
</svg>
