<svg width="398" height="64" viewBox="0 0 398 64" fill="none" xmlns="http://www.w3.org/2000/svg">
<path fill-rule="evenodd" clip-rule="evenodd" d="M110.924 63.7545C114.982 63.578 118.531 63.3702 118.811 63.2924C119.091 63.215 117.373 63.0235 114.995 62.8673C110.682 62.584 110.689 62.5831 117.284 62.4437C120.923 62.3667 126.303 62.1436 129.242 61.948C132.938 61.7018 131.057 61.657 123.136 61.8027C105.033 62.1354 86.4439 62.4296 84.0535 62.4219C82.7193 62.4174 81.9841 62.5921 82.1754 62.8673C82.382 63.1647 77.9303 63.32 69.2003 63.32C59.7667 63.32 56.01 63.1774 56.2522 62.8284C56.4675 62.5188 56.149 62.3758 55.3918 62.4428C54.7309 62.5016 53.8465 62.4287 53.4267 62.2807C53.007 62.1332 49.2289 61.7946 45.0311 61.5284C40.8333 61.2623 36.5398 60.8648 35.4906 60.6453C34.4409 60.4262 33.5825 60.4154 33.5825 60.6213C33.5825 61.1355 34.9299 61.4347 42.7414 62.6564C43.7209 62.8094 45.5526 63.1453 46.812 63.4024C49.5251 63.9564 99.9059 64.233 110.924 63.7545ZM265.862 63.2779C268.253 63.0258 268.184 63.0054 264.717 62.9384C261.064 62.8683 259.961 63.0597 262.173 63.3802C262.803 63.4716 264.462 63.4255 265.862 63.2779ZM271.459 63.0552C272.018 62.9778 274.48 62.7836 276.929 62.6238C279.377 62.464 281.381 62.1834 281.381 61.9996C281.381 61.8163 280.637 61.7471 279.727 61.8462C278.459 61.9842 278.252 61.915 278.837 61.5483C279.417 61.1853 279.05 61.0817 277.31 61.1174C275.222 61.16 275.155 61.1944 276.547 61.5094L278.073 61.8548L276.208 61.9086C275.182 61.9381 274.266 61.7805 274.172 61.5583C274.076 61.3288 272.138 61.3007 269.678 61.4936C265.013 61.8584 265.094 62.0327 269.932 62.0422C271.611 62.0458 272.413 62.1481 271.713 62.2699C270.511 62.479 268.884 63.3951 269.958 63.2584C270.223 63.2245 270.899 63.1331 271.459 63.0552ZM96.0196 62.9855C97.7572 62.8972 100.734 62.8968 102.634 62.9841C104.535 63.071 103.114 63.1435 99.4755 63.1439C95.8374 63.1448 94.2824 63.0733 96.0196 62.9855ZM88.9174 63.0203C89.2669 62.8945 89.8394 62.8945 90.1894 63.0203C90.539 63.1457 90.253 63.2485 89.5534 63.2485C88.8538 63.2485 88.5673 63.1457 88.9174 63.0203ZM50.2466 62.5677C50.5961 62.4419 51.1685 62.4419 51.5186 62.5677C51.8682 62.6931 51.5822 62.7958 50.8826 62.7958C50.183 62.7958 49.8965 62.6931 50.2466 62.5677ZM46.6751 62.5704C47.0196 62.4464 47.7065 62.4387 48.2016 62.5537C48.6967 62.6686 48.4148 62.77 47.5752 62.7791C46.7357 62.7881 46.3307 62.6944 46.6751 62.5704ZM264.462 62.1028C263.973 61.9888 263.171 61.9888 262.681 62.1028C262.192 62.2164 262.592 62.3097 263.572 62.3097C264.551 62.3097 264.952 62.2164 264.462 62.1028ZM259.628 62.1151C259.278 61.9892 258.706 61.9892 258.356 62.1151C258.006 62.2404 258.293 62.3432 258.992 62.3432C259.692 62.3432 259.978 62.2404 259.628 62.1151ZM357.04 61.3673C357.187 61.1564 359.858 61.0255 362.976 61.0767C368.633 61.1686 378.543 60.5023 380.211 59.9175C380.769 59.7219 381.052 59.1914 380.985 58.4685C380.871 57.2383 380.792 57.1943 377.931 56.7716C375.589 56.4253 375.4 55.6929 377.676 55.7848C379.191 55.8459 379.318 55.7472 379.183 54.6066C379.055 53.5166 379.213 53.3609 380.455 53.355C382.235 53.346 382.862 52.9436 383.002 51.7196C383.093 50.9234 382.763 50.707 381.094 50.4698C378.393 50.0856 378.539 49.4595 381.397 49.173C383.654 48.9467 386.462 47.3163 385.924 46.5431C385.791 46.3508 386.369 46.0588 387.209 45.8945C388.529 45.6365 388.638 45.5089 388.013 44.9526C387.615 44.5986 386.987 44.3057 386.617 44.3021C386.11 44.2967 386.128 44.1921 386.689 43.8762C387.211 43.5829 386.616 43.4158 384.7 43.3176C382 43.1791 381.967 43.1601 381.921 41.7062C381.895 40.8969 382.046 40.2351 382.256 40.2351C382.465 40.2351 382.637 39.8277 382.637 39.3298C382.637 38.659 382.999 38.4087 384.036 38.3629C385.256 38.3091 385.287 38.276 384.278 38.1036C382.803 37.8519 380.12 36.6203 381.038 36.6166C381.426 36.6153 381.606 36.3315 381.45 35.968C381.035 35.0079 382.043 34.4901 385.391 33.9415C388.387 33.4508 389.678 32.9928 388.065 32.9928C387.598 32.9928 387.217 32.6872 387.217 32.3138C387.217 31.7856 387.895 31.6348 390.27 31.6348C393.562 31.6348 394.585 30.7703 391.414 30.668C390.233 30.63 389.942 30.5317 390.651 30.41C391.281 30.3022 391.796 30.0383 391.796 29.8233C391.796 29.6083 392.258 29.3023 392.821 29.143C393.385 28.9841 393.72 28.6723 393.566 28.4509C393.412 28.2291 394.038 27.8548 394.958 27.619C396.402 27.2482 396.111 27.1826 392.814 27.1355C388.895 27.0794 388.75 26.6028 392.469 26.008C394.118 25.7446 394.319 25.5943 393.787 25.0235C393.281 24.4812 393.073 24.4645 392.722 24.937C392.383 25.3938 392.116 25.3259 391.521 24.6324C390.821 23.8154 390.854 23.7036 391.913 23.2962C392.902 22.916 392.665 22.8164 390.27 22.6036C387.758 22.3809 387.582 22.299 388.552 21.8043C389.147 21.501 390.635 21.1172 391.86 20.9515C395.666 20.4364 395.885 19.8968 392.305 19.8556L388.998 19.8181L393.323 18.371L397.648 16.9239L395.103 16.6975L392.559 16.4712L395.557 15.8588C397.652 15.4306 398.342 15.1259 397.847 14.8471C397.457 14.6276 396.681 14.4307 396.121 14.4094C395.111 14.3709 395.111 14.3682 396.112 14.0201C396.844 13.7662 396.215 13.5625 393.822 13.2787C390.834 12.9247 390.715 12.8727 392.559 12.7256C393.679 12.6364 394.812 12.373 395.078 12.1408C395.378 11.8791 393.251 11.7049 389.481 11.6827C384.785 11.6551 383.719 11.5433 384.8 11.1925C385.611 10.9286 386.199 10.399 386.199 9.93184C386.199 9.27822 387.088 8.965 390.899 8.27697C393.484 7.8103 395.168 7.35448 394.641 7.26441C393.875 7.13314 393.825 7.02043 394.394 6.70041C394.916 6.40619 394.767 6.2971 393.831 6.28669C393.132 6.279 392.222 6.083 391.81 5.85125C390.978 5.38321 391.194 5.2687 393.903 4.74408C394.641 4.60104 395.37 4.19548 395.522 3.84241C395.754 3.30558 394.875 3.23496 390.108 3.40968C385.903 3.56358 384.617 3.48844 385.181 3.1218C385.825 2.7031 385.785 2.63657 384.927 2.69722C383.226 2.81853 382.854 2.67368 383.655 2.20293C384.174 1.89785 383.442 1.85801 381.365 2.078C377.564 2.4813 377.759 2.48584 369.153 1.78695C363.88 1.35875 356.149 1.28904 339.387 1.51763C325.473 1.70774 312.429 1.64255 305.55 1.34924C282.879 0.381031 280.624 0.313137 280.948 0.610977C281.13 0.778004 283.649 1.02515 286.545 1.16003C289.442 1.29447 292.03 1.58688 292.295 1.80867C292.958 2.36226 249.144 2.31926 233.691 1.75119C224.827 1.42529 157.877 0.787506 134.585 0.806973C129.388 0.811497 106.723 1.38364 105.683 1.53664C104.825 1.66338 104.382 1.56968 104.568 1.30081C104.739 1.05547 104.649 0.854954 104.369 0.854954C104.09 0.854954 103.719 1.05864 103.546 1.3076C103.134 1.90102 101.256 1.89422 101.256 1.29945C101.256 0.787506 89.2364 0.757183 80.4586 1.24649C76.4394 1.47055 75.121 1.40491 74.9343 0.971733C74.799 0.658504 74.3563 0.402306 73.9497 0.402306C73.5432 0.402306 73.3524 0.605999 73.5254 0.854954C73.6984 1.10391 73.4256 1.34245 72.9194 1.385C72.4131 1.42755 71.6554 1.50767 71.2357 1.56334C70.8159 1.61856 69.2131 1.68872 67.6739 1.71905C65.9688 1.75255 65.1358 1.92138 65.5429 2.15042C66.2029 2.52295 62.5938 2.86968 52.4091 3.41104C47.2888 3.68308 44.9721 4.42632 48.8727 4.54491C50.1178 4.58294 51.366 4.66125 51.6458 4.71918C51.9257 4.77713 54.3299 4.8758 56.9885 4.93826L61.8224 5.05278L58.515 5.40495C56.696 5.59867 52.9566 5.82092 50.2054 5.89833C47.4541 5.97618 45.0937 6.19707 44.9599 6.38945C44.826 6.58182 44.2587 6.73934 43.699 6.73934C43.1393 6.73934 42.8045 6.91632 42.9546 7.13314C43.1067 7.35176 44.1946 7.36036 45.4016 7.1526C47.8378 6.73345 50.1596 6.62799 49.7942 6.95299C49.3042 7.38934 38.7624 9.00528 38.0327 8.75632C37.6063 8.61102 37.1428 8.80611 36.9713 9.20308C36.7556 9.70325 35.888 9.92913 33.9799 9.98163L31.2928 10.0554L34.0913 10.3225C36.293 10.533 36.5978 10.6475 35.5201 10.8598C34.7665 11.0087 33.0493 10.9788 31.7039 10.7941C30.3586 10.6095 29.2056 10.4995 29.142 10.5497C29.0784 10.6004 29.3913 11.1046 29.837 11.6709C30.3738 12.3526 30.8181 12.5481 31.1529 12.2503C31.4882 11.952 32.198 11.9597 33.2569 12.2738C36.0997 13.1162 35.6509 13.3059 31.2038 13.1406C28.1014 13.0257 26.9408 13.1239 27.1881 13.4801C27.4028 13.7888 27.0843 13.9975 26.3618 14.0224C25.3156 14.0586 30.3159 14.9625 34.3458 15.4659C35.1853 15.5709 34.1549 15.6904 32.056 15.7311C29.9571 15.7723 27.8964 16.0036 27.4766 16.2449C26.8436 16.6088 26.8869 16.6862 27.731 16.6975C28.2907 16.7052 29.0921 16.9266 29.5119 17.1896C30.0701 17.539 29.6259 17.5906 27.8597 17.381C24.702 17.0071 24.0344 17.4023 25.4917 18.782C26.1364 19.393 26.3623 19.8661 26.0086 19.8661C25.6636 19.8661 25.5227 20.0697 25.6957 20.3187C25.8687 20.5676 26.9698 20.7745 28.1427 20.7781C29.3155 20.7822 30.6186 20.9977 31.0384 21.2575C31.5874 21.597 31.0526 21.6468 29.1303 21.434C26.4121 21.1339 25.3838 21.7368 27.6038 22.3293C28.7202 22.6272 28.7237 22.6453 27.731 23.0694C26.9245 23.4134 27.0858 23.4646 28.5075 23.3143C30.556 23.0975 32.7073 24.0734 31.2663 24.5654C30.815 24.7193 30.035 24.8451 29.5328 24.8451C29.0301 24.8451 28.334 25.1507 27.9854 25.5241C27.4878 26.0573 27.4863 26.2031 27.9778 26.2031C28.3248 26.2031 28.4729 26.5055 28.3101 26.882C28.1223 27.3184 28.3299 27.5723 28.8917 27.5927C29.6172 27.6194 29.5928 27.6878 28.7487 27.9956C27.8033 28.3405 27.8323 28.402 29.1634 28.8692C29.951 29.1453 30.9244 29.3716 31.3259 29.3716C31.7273 29.3716 32.056 29.5753 32.056 29.8242C32.056 30.0732 30.7397 30.2968 29.1303 30.3208L26.2045 30.3647L28.1126 31.0613C30.1815 31.8163 30.5565 32.7058 29.0987 33.3997C28.5919 33.641 25.6153 33.9827 22.484 34.1592C19.3532 34.3353 16.7913 34.6372 16.7913 34.83C16.7913 35.0229 17.4212 35.385 18.1905 35.6353C19.3618 36.0155 18.9884 36.0956 15.9008 36.1255C13.8075 36.1459 12.2118 36.3573 12.2118 36.6139C12.2118 36.8629 12.6835 37.0666 13.2595 37.0666C13.8355 37.0666 14.1718 37.2612 14.0064 37.4993C13.8411 37.7374 13.3694 37.8175 12.9588 37.6772C12.5482 37.5373 12.2118 37.6138 12.2118 37.8474C12.2118 38.0814 13.2997 38.4996 14.6288 38.7771C16.6803 39.2053 15.8927 39.2596 9.41327 39.1374L1.78088 38.993L8.39563 39.8205C19.9704 41.2685 19.7633 41.2309 18.3177 41.6161C17.1408 41.9298 17.1291 41.9588 18.1605 42.0004C19.7119 42.0633 20.1057 42.8441 18.707 43.0831C18.0659 43.1931 18.4948 43.3076 19.6748 43.342C20.8405 43.376 21.8708 43.6046 21.9645 43.8499C22.0576 44.0952 24.7671 44.4628 27.9854 44.666C33.7169 45.0281 33.7927 45.0472 31.6897 45.5917C30.3194 45.9461 26.75 46.1109 21.8317 46.0471C14.7137 45.9543 14.0655 46.0145 13.3999 46.8251C12.7659 47.5978 11.9136 47.7218 6.33945 47.854C1.28476 47.9735 0 48.1342 0 48.6461C0 48.9992 0.198944 49.288 0.442169 49.288C1.15759 49.288 9.8407 50.6518 10.8126 50.9166C12.6509 51.4181 11.6007 52.0057 8.77725 52.0559C5.88254 52.1075 5.87338 52.112 7.88681 52.4823C9.00623 52.6883 11.7539 52.8838 13.9927 52.9164C17.9799 52.9752 23.3872 53.5904 21.8795 53.8144C20.4436 54.0276 25.6911 54.6527 29.199 54.6862C32.2565 54.7157 32.8529 54.8637 33.8817 55.8513L35.0607 56.983L32.9221 57.0237L30.784 57.0644L32.5237 57.5094C33.4807 57.7538 34.6826 57.8561 35.195 57.7371C35.7074 57.618 36.1266 57.69 36.1266 57.8973C36.1266 58.1046 36.5276 58.3676 37.0171 58.4817C37.5066 58.5953 36.8772 58.7379 35.6178 58.7976L33.3281 58.9067L35.6178 59.2498C43.1016 60.3706 96.3233 60.9893 113.468 60.1546C118.366 59.9161 124.701 59.716 127.546 59.7101C131.197 59.702 132.795 59.5323 132.977 59.133C133.171 58.7071 133.34 58.6976 133.659 59.0959C134.018 59.5422 144.584 60.056 145.524 59.673C146.443 59.2987 280.48 59.348 289.522 59.726C295.539 59.9777 302.408 60.2628 304.787 60.3597C307.166 60.4566 314.246 60.6421 320.52 60.7711C326.795 60.9006 334.237 61.1342 337.057 61.2899C345.213 61.7407 356.75 61.7855 357.04 61.3673ZM98.8074 61.6529C98.4406 61.5221 98.0014 61.5384 97.8325 61.6887C97.6636 61.8389 97.9638 61.9458 98.5001 61.9263C99.0929 61.9046 99.2134 61.7973 98.8074 61.6529ZM112.546 61.2003C112.179 61.0694 111.74 61.0857 111.571 61.236C111.402 61.3863 111.702 61.4931 112.238 61.4737C112.831 61.4519 112.952 61.3447 112.546 61.2003ZM108.475 61.2003C108.108 61.0694 107.669 61.0857 107.5 61.236C107.331 61.3863 107.631 61.4931 108.168 61.4737C108.761 61.4519 108.881 61.3447 108.475 61.2003ZM271.84 60.2846C271.21 60.1768 270.181 60.1768 269.551 60.2846C268.921 60.3927 269.436 60.481 270.695 60.481C271.955 60.481 272.47 60.3927 271.84 60.2846ZM168.793 58.4966C169.138 58.3726 169.825 58.3649 170.32 58.4799C170.815 58.5948 170.533 58.6962 169.693 58.7053C168.854 58.7143 168.449 58.6206 168.793 58.4966ZM38.2998 58.5201C38.4688 58.3699 38.9079 58.3536 39.2747 58.4844C39.6808 58.6288 39.5602 58.7361 38.9674 58.7578C38.4311 58.7772 38.1309 58.6704 38.2998 58.5201ZM114.123 57.7162C113.95 57.5619 115.62 57.4125 117.835 57.384C120.051 57.3559 127.703 57.2292 134.839 57.1029C141.975 56.9762 167.235 56.7159 190.972 56.5235C214.709 56.3312 235.379 56.0356 236.905 55.8658C239.708 55.5544 243.064 55.9138 242.449 56.4602C242.095 56.7747 237.278 56.8589 210.272 57.0205C199.965 57.0825 193.354 57.2908 193.354 57.5537C193.354 57.7909 193.032 57.8751 192.638 57.7407C191.55 57.3695 174.605 57.4324 162.315 57.8534C150.3 58.2653 114.626 58.1635 114.123 57.7162ZM100.833 58.1141C101.198 57.7887 109.92 57.7493 110.282 58.0716C110.449 58.2196 108.333 58.3409 105.581 58.3409C102.83 58.3409 100.693 58.2391 100.833 58.1141ZM98.8501 58.0675C99.0191 57.9172 99.4582 57.9009 99.8251 58.0317C100.231 58.1761 100.111 58.2834 99.5177 58.3051C98.9814 58.3246 98.6812 58.2178 98.8501 58.0675ZM137.504 57.5682C136.871 57.46 135.955 57.4641 135.469 57.5773C134.982 57.6904 135.5 57.7792 136.62 57.7742C137.739 57.7692 138.137 57.6764 137.504 57.5682ZM68.0077 57.5488C67.8784 57.3623 70.937 57.2093 74.804 57.2093C78.6711 57.2093 82.007 57.3623 82.2171 57.5488C82.4272 57.7353 79.3692 57.8883 75.4213 57.8883C71.4728 57.8883 68.1369 57.7353 68.0077 57.5488ZM65.3842 57.4356C66.7737 56.9042 67.165 56.9042 67.165 57.4356C67.165 57.6846 66.5356 57.8738 65.7658 57.8566C64.5258 57.828 64.4825 57.7805 65.3842 57.4356ZM158.34 57.1264C157.973 56.9956 157.534 57.0119 157.365 57.1622C157.196 57.3125 157.496 57.4193 158.033 57.3998C158.625 57.3781 158.746 57.2708 158.34 57.1264ZM155.31 57.1074C154.396 57.007 153.022 57.0088 152.257 57.112C151.492 57.2156 152.241 57.298 153.92 57.2953C155.599 57.293 156.224 57.2084 155.31 57.1074ZM258.023 56.051C258.389 55.8495 258.897 55.7988 259.15 55.9378C259.403 56.0768 259.31 56.3556 258.944 56.557C258.578 56.7584 258.07 56.8091 257.818 56.6702C257.565 56.5312 257.657 56.2524 258.023 56.051ZM248.816 56.4321C248.816 56.237 250.476 56.1017 252.505 56.1311C255.243 56.1709 255.801 56.2719 254.667 56.5226C252.714 56.9554 248.816 56.8947 248.816 56.4321ZM243.728 56.7453C243.728 56.2619 246.475 55.5988 247.25 55.8953C247.884 56.1379 247.786 56.275 246.781 56.5475C245.227 56.9694 243.728 57.0662 243.728 56.7453ZM260.282 56.0519C260.446 55.8174 262.34 55.6282 264.492 55.6318C266.645 55.6359 268.138 55.7884 267.811 55.9713C266.905 56.4778 259.935 56.5525 260.282 56.0519ZM97.5577 56.2334C97.9022 56.1094 98.5891 56.1017 99.0842 56.2166C99.5793 56.3316 99.2974 56.433 98.4579 56.442C97.6183 56.4511 97.2133 56.3574 97.5577 56.2334ZM61.9496 55.7581C62.579 55.6504 63.6099 55.6504 64.2393 55.7581C64.8687 55.8663 64.3538 55.9545 63.0944 55.9545C61.8351 55.9545 61.3202 55.8663 61.9496 55.7581ZM377.549 49.7406C377.549 49.4917 377.65 49.288 377.773 49.288C377.897 49.288 378.139 49.4917 378.312 49.7406C378.485 49.9896 378.384 50.1933 378.088 50.1933C377.792 50.1933 377.549 49.9896 377.549 49.7406ZM391.382 33.1363C391.016 33.0054 390.576 33.0217 390.407 33.172C390.239 33.3223 390.539 33.4291 391.075 33.4096C391.668 33.3879 391.788 33.2806 391.382 33.1363ZM29.6498 25.477C29.8187 25.3268 30.2578 25.3105 30.6247 25.4413C31.0308 25.5857 30.9102 25.693 30.3174 25.7147C29.7811 25.7341 29.4809 25.6273 29.6498 25.477ZM387.217 24.3925C387.217 24.1435 387.459 23.9399 387.755 23.9399C388.052 23.9399 388.153 24.1435 387.98 24.3925C387.807 24.6415 387.565 24.8451 387.441 24.8451C387.317 24.8451 387.217 24.6415 387.217 24.3925ZM235.82 17.5725C235.273 16.7844 235.896 16.6174 236.594 17.3656C236.995 17.7957 237.034 18.0555 236.696 18.0555C236.399 18.0555 236.004 17.8382 235.82 17.5725ZM203.554 16.4581C203.252 16.6242 203.137 16.9497 203.298 17.1814C203.466 17.4236 202.297 17.6028 200.55 17.6028C198.794 17.6028 197.431 17.3928 197.323 17.1058C197.22 16.8324 196.061 16.5006 194.747 16.3689C191.472 16.0403 192.218 15.3432 195.661 15.5157C197.732 15.6193 198.442 15.4989 198.442 15.0445C198.442 14.2759 200.304 14.2383 200.649 15.0001C200.798 15.3283 200.923 15.2219 200.946 14.7471C200.968 14.2967 201.175 14.0315 201.405 14.1582C201.635 14.2845 202.204 13.9912 202.672 13.5059C203.668 12.4703 206.075 12.3069 206.075 13.2742C206.075 13.7694 206.516 13.8608 207.924 13.658C209.375 13.4484 209.719 13.5277 209.523 14.0256C209.385 14.375 208.947 14.6398 208.551 14.6145C208.153 14.5891 207.516 14.8666 207.133 15.2305C206.529 15.8058 206.664 15.852 208.164 15.5822C209.114 15.4116 210.272 15.1771 210.738 15.0612C211.205 14.9449 211.72 15.0431 211.884 15.2785C212.048 15.5143 211.024 15.8488 209.609 16.0217C208.194 16.1951 206.762 16.6025 206.428 16.9275C205.93 17.4118 205.665 17.3955 204.962 16.8374C204.49 16.4626 203.856 16.292 203.554 16.4581ZM131.786 16.975C131.786 16.6034 134.898 16.4164 135.146 16.7731C135.29 16.9804 134.593 17.1502 133.597 17.1502C132.601 17.1502 131.786 17.0714 131.786 16.975ZM224.699 14.2496C225.136 13.2362 225.777 13.7427 225.623 14.9811C225.432 16.521 225.42 16.5337 224.885 15.718C224.613 15.3038 224.53 14.643 224.699 14.2496ZM188.638 15.9479C188.982 15.8239 189.669 15.8162 190.164 15.9312C190.659 16.0462 190.377 16.1476 189.538 16.1566C188.698 16.1657 188.293 16.072 188.638 15.9479ZM171.474 15.7692C174.737 15.2527 186.339 15.2694 187.248 15.7922C187.754 16.0833 184.841 16.2141 178.598 16.1815C172.16 16.1471 169.908 16.0172 171.474 15.7692ZM160.916 15.9208C161.686 15.8171 162.945 15.8171 163.715 15.9208C164.485 16.0244 163.855 16.1091 162.315 16.1091C160.776 16.1091 160.146 16.0244 160.916 15.9208ZM156.082 15.9452C156.432 15.8194 157.004 15.8194 157.354 15.9452C157.704 16.0706 157.418 16.1734 156.718 16.1734C156.019 16.1734 155.732 16.0706 156.082 15.9452ZM150.994 15.9452C151.344 15.8194 151.916 15.8194 152.266 15.9452C152.616 16.0706 152.33 16.1734 151.63 16.1734C150.931 16.1734 150.644 16.0706 150.994 15.9452ZM237.622 15.5709C237.622 14.9118 239.519 13.5313 240.406 13.544C241.398 13.5584 241.393 13.5924 240.274 14.4225L239.11 15.2857L241.291 15.46C243.207 15.613 243.117 15.6438 240.548 15.713C238.938 15.7565 237.622 15.6927 237.622 15.5709ZM235.216 15.5188C235.384 15.3686 235.824 15.3523 236.19 15.4831C236.596 15.6275 236.476 15.7348 235.883 15.7565C235.347 15.7759 235.047 15.6691 235.216 15.5188ZM204.039 15.3396C204.039 15.0906 203.797 14.887 203.5 14.887C203.204 14.887 203.103 15.0906 203.276 15.3396C203.449 15.5886 203.691 15.7922 203.815 15.7922C203.938 15.7922 204.039 15.5886 204.039 15.3396ZM44.9146 15.5188C45.0835 15.3686 45.5226 15.3523 45.8895 15.4831C46.2955 15.6275 46.175 15.7348 45.5822 15.7565C45.0459 15.7759 44.7456 15.6691 44.9146 15.5188ZM41.0877 15.4926C41.4373 15.3668 42.0097 15.3668 42.3598 15.4926C42.7093 15.618 42.4234 15.7207 41.7237 15.7207C41.0241 15.7207 40.7376 15.618 41.0877 15.4926ZM259.639 15.0662C259.808 14.9159 260.247 14.8996 260.614 15.0304C261.02 15.1748 260.9 15.2821 260.307 15.3038C259.77 15.3233 259.47 15.2165 259.639 15.0662ZM245.371 14.8019C245.482 14.5063 245.876 14.1745 246.247 14.0645C246.627 13.9518 246.777 14.0735 246.589 14.3433C246.403 14.6122 246.762 14.9087 247.409 15.0191C248.23 15.1594 248.073 15.2341 246.866 15.278C245.759 15.3183 245.239 15.1527 245.371 14.8019ZM229.226 14.4343C229.411 13.9151 229.318 13.529 229.006 13.529C228.707 13.529 228.463 13.3593 228.463 13.152C228.463 12.564 230.532 12.8451 230.983 13.4946C231.296 13.9441 231.633 13.9577 232.479 13.5548C233.08 13.2687 233.82 13.1705 234.123 13.3371C234.733 13.673 231.299 15.2445 229.828 15.3029C229.128 15.3305 228.982 15.1192 229.226 14.4343ZM133.058 14.887C132.885 14.638 132.986 14.4343 133.282 14.4343C133.579 14.4343 133.821 14.638 133.821 14.887C133.821 15.1359 133.721 15.3396 133.597 15.3396C133.473 15.3396 133.231 15.1359 133.058 14.887ZM128.224 15.14C128.224 15.03 128.453 14.8145 128.733 14.6606C129.013 14.5067 129.242 14.5968 129.242 14.8602C129.242 15.1237 129.013 15.3396 128.733 15.3396C128.453 15.3396 128.224 15.25 128.224 15.14ZM53.7987 15.0427C54.1432 14.9186 54.8301 14.9109 55.3252 15.0259C55.8203 15.1409 55.5384 15.2423 54.6988 15.2513C53.8592 15.2604 53.4542 15.1667 53.7987 15.0427ZM51.0205 15.0662C51.1894 14.9159 51.6285 14.8996 51.9954 15.0304C52.4015 15.1748 52.2809 15.2821 51.6881 15.3038C51.1518 15.3233 50.8516 15.2165 51.0205 15.0662ZM252.123 14.4343C251.95 14.1854 252.052 13.9817 252.348 13.9817C252.644 13.9817 252.887 14.1854 252.887 14.4343C252.887 14.6833 252.786 14.887 252.662 14.887C252.538 14.887 252.296 14.6833 252.123 14.4343ZM191.965 14.6136C192.134 14.4633 192.573 14.447 192.94 14.5778C193.346 14.7222 193.226 14.8295 192.633 14.8512C192.097 14.8707 191.796 14.7638 191.965 14.6136ZM189.421 14.6136C189.59 14.4633 190.029 14.447 190.396 14.5778C190.802 14.7222 190.682 14.8295 190.089 14.8512C189.552 14.8707 189.252 14.7638 189.421 14.6136ZM184.704 14.208C184.704 13.8346 184.475 13.529 184.195 13.529C183.915 13.529 183.687 13.7834 183.687 14.0948C183.688 14.5149 182.571 14.6226 179.356 14.514C176.735 14.4253 175.142 14.1944 175.327 13.9296C175.494 13.6893 176.034 13.6064 176.529 13.7458C177.022 13.8853 178.091 13.6906 178.902 13.314C180.209 12.7075 180.398 12.7066 180.543 13.3054C180.727 14.0613 182.943 14.2329 183.432 13.529C183.773 13.0379 185.871 12.9075 186.365 13.3471C186.86 13.7875 186.18 14.887 185.413 14.887C185.023 14.887 184.704 14.5814 184.704 14.208ZM137.892 14.208C138.428 13.6331 138.316 13.529 137.161 13.529C136.381 13.529 135.931 13.3353 136.111 13.0764C136.284 12.8274 136.908 12.6237 137.498 12.6237C138.088 12.6237 138.407 12.478 138.207 12.3001C138.006 12.1222 135.989 12.0394 133.725 12.1154C130.045 12.2394 129.641 12.1733 129.933 11.4957C130.148 10.9969 130.042 10.8086 129.624 10.9449C129.274 11.0594 129.044 11.3817 129.115 11.6619C129.185 11.942 128.656 12.1711 127.94 12.1711C127.201 12.1711 126.773 11.9751 126.952 11.7184C127.125 11.4695 127.024 11.2658 126.728 11.2658C126.432 11.2658 126.189 11.4695 126.189 11.7184C126.189 12.4716 124.286 12.2254 123.941 11.4274C123.765 11.0182 123.697 10.6153 123.791 10.5321C123.884 10.4492 126.217 10.3256 128.975 10.2577C132.636 10.1677 134.047 10.2867 134.202 10.7C134.319 11.011 134.867 11.2658 135.42 11.2658C135.973 11.2658 136.284 11.0621 136.111 10.8131C135.927 10.5493 136.445 10.3605 137.353 10.3605C138.209 10.3605 138.909 10.5642 138.909 10.8131C138.909 11.0621 139.757 11.2658 140.792 11.2658C142.85 11.2658 142.587 11.9896 140.436 12.2458C139.479 12.3598 139.124 12.7061 139.003 13.6422C138.904 14.4053 138.535 14.887 138.05 14.887C137.404 14.887 137.375 14.762 137.892 14.208ZM87.2637 13.8432C86.7039 13.7132 87.3339 13.6277 88.6629 13.6526C89.992 13.6775 91.0799 13.8776 91.0799 14.0966C91.0799 14.3162 90.5934 14.3578 89.9986 14.1899C89.1718 13.9568 89.015 14.0292 89.3331 14.499C89.6597 14.982 89.5921 15.0028 89.015 14.5964C88.6115 14.3116 87.8234 13.9731 87.2637 13.8432ZM150.867 13.9817C151.04 13.7327 151.397 13.529 151.66 13.529C151.924 13.529 152.139 13.7327 152.139 13.9817C152.139 14.2306 151.782 14.4343 151.346 14.4343C150.91 14.4343 150.694 14.2306 150.867 13.9817ZM205.057 13.529C204.07 12.9619 203.53 12.9619 203.53 13.529C203.53 13.778 204.046 13.9785 204.675 13.9749C205.601 13.969 205.674 13.8839 205.057 13.529ZM157.227 13.3326C157.227 12.965 156.621 12.6147 155.828 12.5246C154.705 12.397 154.844 12.3227 156.528 12.1484C158.441 11.9506 158.627 12.0222 158.627 12.9564C158.627 13.5245 158.315 13.9817 157.927 13.9817C157.542 13.9817 157.227 13.6897 157.227 13.3326ZM141.454 13.5965C141.454 13.3692 142.374 13.1719 143.499 13.1578C144.625 13.1443 145.442 13.2814 145.316 13.4625C144.974 13.954 141.454 14.0763 141.454 13.5965ZM299.953 13.0764C299.78 12.8274 299.996 12.6237 300.432 12.6237C300.868 12.6237 301.225 12.8274 301.225 13.0764C301.225 13.3253 301.01 13.529 300.746 13.529C300.483 13.529 300.126 13.3253 299.953 13.0764ZM198.951 13.0497C198.951 12.7862 199.205 12.7102 199.517 12.8813C199.828 13.0524 200.282 12.9116 200.526 12.5685C200.878 12.0751 200.973 12.1104 200.979 12.7369C200.983 13.2294 200.602 13.529 199.969 13.529C199.409 13.529 198.951 13.3131 198.951 13.0497ZM191.827 13.1895C191.827 13.003 192.378 12.85 193.051 12.85C193.724 12.85 194.168 13.003 194.038 13.1895C193.909 13.376 193.358 13.529 192.815 13.529C192.272 13.529 191.827 13.376 191.827 13.1895ZM94.8961 13.0764C95.0691 12.8274 95.7122 12.6382 96.3253 12.6554C97.4 12.6862 97.4036 12.7011 96.4225 13.0764C95.0222 13.6119 94.5241 13.6119 94.8961 13.0764ZM57.4973 13.0764C57.4973 12.8274 56.9819 12.6206 56.3525 12.6169C55.7231 12.6129 54.8642 12.4123 54.4444 12.1711C53.8816 11.8474 54.2821 11.7071 55.9709 11.637C57.2302 11.5845 59.062 11.4609 60.0415 11.3627C61.021 11.264 69.7219 11.1237 79.3769 11.0508C89.0318 10.9779 95.5575 11.0702 93.8784 11.2563C92.1993 11.4419 89.6806 11.7207 88.2813 11.8755C82.9051 12.4698 76.3845 12.6246 76.0659 12.1661C75.8894 11.9117 75.5098 11.833 75.2228 11.9909C74.9353 12.1484 74.1655 12.0231 73.5111 11.7116C72.8573 11.4002 71.9058 11.2934 71.3969 11.4745C70.8886 11.6555 68.8269 11.8393 66.816 11.8827C64.8051 11.9262 63.0105 12.095 62.8273 12.258C62.6446 12.4205 61.714 12.4409 60.7594 12.3033C59.379 12.1041 59.0238 12.2037 59.0238 12.7908C59.0238 13.1968 58.6804 13.529 58.2606 13.529C57.8408 13.529 57.4973 13.3253 57.4973 13.0764ZM42.5292 12.9632C42.2921 12.5106 42.173 12.5106 41.9359 12.9632C41.6164 13.5716 37.3687 13.7653 36.9682 13.1895C36.839 13.003 37.7411 12.9216 38.9735 13.0089C40.3733 13.1081 41.2149 12.9804 41.2149 12.6694C41.2149 11.9144 43.6079 12.0729 43.9432 12.85C44.2994 13.6757 42.9592 13.783 42.5292 12.9632ZM160.535 12.6237C160.708 12.3748 161.465 12.1856 162.218 12.2028C163.441 12.2313 163.479 12.2765 162.57 12.6237C161.156 13.1642 160.159 13.1642 160.535 12.6237ZM112.705 12.6237C112.878 12.3748 112.548 12.1711 111.972 12.1711C111.396 12.1711 110.924 12.3748 110.924 12.6237C110.924 13.1583 109.938 13.0374 109.1 12.4001C108.332 11.8158 110.944 10.7842 112.359 11.1132C112.906 11.2404 113.507 11.1232 113.695 10.8525C113.883 10.5818 114.381 10.3605 114.8 10.3605C115.22 10.3605 115.411 10.58 115.225 10.848C114.99 11.1857 115.606 11.2395 117.23 11.0232C118.652 10.8335 119.574 10.8838 119.574 11.1513C119.574 11.3934 118.261 11.7125 116.656 11.8597C115.052 12.0068 113.659 12.3408 113.561 12.602C113.464 12.8627 113.16 13.0764 112.887 13.0764C112.614 13.0764 112.532 12.8727 112.705 12.6237ZM98.1571 12.659C98.551 12.4368 99.5477 12.3309 100.372 12.4237C101.525 12.5536 101.93 12.3879 102.131 11.7026C102.275 11.2133 102.588 10.8131 102.826 10.8131C103.376 10.8131 102.784 12.287 102.057 12.7301C101.757 12.913 100.595 13.0623 99.4755 13.0623C98.0869 13.0623 97.6676 12.9342 98.1571 12.659ZM277.31 12.224C277.31 11.6849 279.277 11.2545 279.602 11.7221C279.744 11.9267 279.573 12.1969 279.221 12.3232C278.179 12.6971 277.31 12.6518 277.31 12.224ZM270.695 12.1711C270.695 11.9221 270.911 11.7184 271.174 11.7184C271.438 11.7184 271.795 11.9221 271.968 12.1711C272.141 12.42 271.925 12.6237 271.489 12.6237C271.053 12.6237 270.695 12.42 270.695 12.1711ZM261.537 12.2204C261.537 11.536 265.252 11.3903 266.611 12.0213C267.802 12.5739 267.661 12.6183 264.717 12.621C262.967 12.6224 261.537 12.4422 261.537 12.2204ZM259.972 12.0466C260.035 11.5052 260.733 11.6103 260.951 12.1937C261.063 12.4925 260.88 12.6554 260.544 12.5558C260.209 12.4562 259.951 12.2272 259.972 12.0466ZM255.466 10.6208C255.447 10.3904 255.855 10.5941 256.374 11.0734C257.014 11.6641 257.137 12.0489 256.756 12.2675C256.246 12.5608 255.557 11.6804 255.466 10.6208ZM251.147 12.349C250.112 11.9955 250.104 11.2658 251.136 11.2658C251.572 11.2658 251.796 11.0743 251.633 10.8408C251.471 10.6067 251.8 10.446 252.364 10.4841C253.419 10.5547 253.584 11.6555 252.632 12.2775C252.009 12.6848 252.116 12.6799 251.147 12.349ZM51.3914 12.1711C51.3914 11.9221 51.7924 11.7216 52.2819 11.7252C53.0431 11.7311 53.0614 11.7963 52.4091 12.1711C51.4489 12.7233 51.3914 12.7233 51.3914 12.1711ZM245.998 11.4663C247.299 10.991 247.368 10.8856 246.506 10.6909C245.7 10.5085 245.753 10.4556 246.785 10.413C247.522 10.3827 248.309 10.7118 248.645 11.1902C249.179 11.9506 249.029 12.0199 246.859 12.0181C244.513 12.0163 244.505 12.0113 245.998 11.4663ZM239.003 10.9444C238.798 9.99023 238.919 9.86802 239.847 10.0898C240.442 10.2319 241.845 10.3573 242.964 10.3682C244.611 10.384 244.828 10.4773 244.099 10.8548C243.603 11.1114 243.325 11.5052 243.481 11.7302C243.638 11.9547 242.748 12.1204 241.504 12.0982C239.522 12.0629 239.213 11.9203 239.003 10.9444ZM224.052 11.0109C223.523 10.3682 223.235 10.3039 222.762 10.7244C221.915 11.4781 220.83 11.4011 220.83 10.5868C220.83 10.0577 221.477 9.91555 223.756 9.94361C225.366 9.96307 226.396 10.0821 226.046 10.2075C224.55 10.7448 225.615 11.2658 228.208 11.2658C231.235 11.2658 232.05 10.533 229.353 10.2351C228.325 10.122 228.795 10.0255 230.595 9.98028C232.221 9.93954 233.641 10.1238 233.833 10.3999C234.079 10.7543 234.33 10.7543 234.728 10.3999C235.032 10.1292 235.625 9.90785 236.044 9.90785C236.609 9.90785 236.659 10.0405 236.237 10.4157C235.923 10.695 235.793 11.2174 235.948 11.5768C236.186 12.129 235.341 12.1996 230.481 12.0344C225.657 11.8705 224.623 11.7062 224.052 11.0109ZM212.692 11.1526C212.688 10.647 216.141 10.7416 216.499 11.2572C216.686 11.5247 215.992 11.6596 214.751 11.5967C213.62 11.5392 212.693 11.3391 212.692 11.1526ZM194.372 11.2925C194.372 11.058 194.6 10.7412 194.879 10.5877C195.767 10.0998 209.511 10.3238 210.654 10.8448C211.235 11.1096 204.932 11.5759 199.841 11.6447C196.704 11.6868 194.372 11.5369 194.372 11.2925ZM172.057 11.03C171.521 10.5529 172.484 10.3913 177.23 10.1618C182.096 9.92596 187.248 10.5026 187.248 11.283C187.248 11.6809 172.513 11.4351 172.057 11.03ZM153.92 10.8294C157.202 10.5687 159.67 10.7606 158.853 11.2133C158.576 11.3667 156.666 11.3975 154.608 11.2821L150.867 11.0721L153.92 10.8294ZM145.015 11.2658C145.015 11.0168 145.116 10.8131 145.24 10.8131C145.363 10.8131 145.606 11.0168 145.779 11.2658C145.952 11.5147 145.85 11.7184 145.554 11.7184C145.258 11.7184 145.015 11.5147 145.015 11.2658ZM133.567 11.2658C133.74 11.0168 133.524 10.8131 133.088 10.8131C132.652 10.8131 132.295 11.0168 132.295 11.2658C132.295 11.5147 132.51 11.7184 132.774 11.7184C133.037 11.7184 133.394 11.5147 133.567 11.2658ZM28.0806 11.4093C27.7137 11.2785 27.2746 11.2948 27.1057 11.445C26.9367 11.5953 27.2369 11.7021 27.7733 11.6827C28.366 11.6609 28.4866 11.5537 28.0806 11.4093ZM147.276 10.8557C147.432 10.6303 148.018 10.552 148.578 10.6823C149.978 11.0078 149.852 11.2658 148.293 11.2658C147.577 11.2658 147.119 11.0811 147.276 10.8557ZM120.973 10.9661C121.323 10.8403 121.895 10.8403 122.245 10.9661C122.595 11.0915 122.309 11.1943 121.609 11.1943C120.91 11.1943 120.623 11.0915 120.973 10.9661ZM97.5674 10.9661C97.917 10.8403 98.4894 10.8403 98.8394 10.9661C99.189 11.0915 98.9031 11.1943 98.2034 11.1943C97.5038 11.1943 97.2173 11.0915 97.5674 10.9661ZM31.8016 9.00256C31.6286 8.75361 31.3864 8.54992 31.2628 8.54992C31.1391 8.54992 31.0384 8.75361 31.0384 9.00256C31.0384 9.25152 31.2811 9.45521 31.5772 9.45521C31.8734 9.45521 31.9746 9.25152 31.8016 9.00256ZM18.4129 9.14605C18.046 9.01524 17.6069 9.03153 17.438 9.18181C17.269 9.33209 17.5692 9.43892 18.1056 9.41945C18.6983 9.39772 18.8189 9.29045 18.4129 9.14605ZM226.429 3.45766C226.428 3.27117 231.065 3.1562 236.731 3.20237C243.864 3.26077 245.704 3.36533 242.71 3.54186C236.497 3.9085 226.43 3.85644 226.429 3.45766ZM221.339 3.29154C221.339 3.19648 222.427 3.14217 223.756 3.17159C225.835 3.21776 225.959 3.26846 224.647 3.53371C223.22 3.82204 221.339 3.68398 221.339 3.29154ZM247.671 3.27117C248.021 3.14534 248.593 3.14534 248.943 3.27117C249.293 3.39655 249.007 3.49931 248.307 3.49931C247.607 3.49931 247.321 3.39655 247.671 3.27117ZM293.721 2.30613C293.369 2.09972 295.456 1.91912 298.422 1.89966C301.356 1.88019 303.665 1.99698 303.552 2.15948C303.244 2.60307 294.453 2.73388 293.721 2.30613ZM61.1543 1.90373C60.7874 1.77292 60.3483 1.78921 60.1794 1.93949C60.0104 2.08977 60.3106 2.19659 60.847 2.17713C61.4397 2.1554 61.5603 2.04813 61.1543 1.90373ZM98.3413 1.48684C98.5103 1.33657 98.9494 1.32027 99.3162 1.45109C99.7223 1.59548 99.6017 1.70276 99.0089 1.72449C98.4726 1.74395 98.1724 1.63712 98.3413 1.48684ZM275.176 0.517277C272.183 0.437614 267.145 0.437164 263.981 0.51683C260.818 0.596497 263.267 0.661674 269.423 0.662128C275.58 0.662582 278.169 0.597397 275.176 0.517277ZM229.573 0.303631C229.302 0.0623703 228.655 -0.0553207 228.135 0.0429039C227.436 0.174625 227.564 0.288696 228.629 0.481522C229.557 0.65036 229.892 0.586987 229.573 0.303631ZM71.8396 0.545795C71.4728 0.414982 71.0336 0.431274 70.8647 0.581554C70.6958 0.731831 70.996 0.838661 71.5323 0.819195C72.1251 0.79747 72.2457 0.690189 71.8396 0.545795ZM225.531 0.0822868C224.898 -0.0258942 223.982 -0.0218201 223.496 0.0913429C223.009 0.204502 223.527 0.293221 224.647 0.288242C225.766 0.28326 226.164 0.190468 225.531 0.0822868ZM218.407 0.0822868C217.774 -0.0258942 216.859 -0.0218201 216.372 0.0913429C215.886 0.204502 216.404 0.293221 217.523 0.288242C218.643 0.28326 219.04 0.190468 218.407 0.0822868ZM202.631 0.0741386C201.716 -0.0263519 200.343 -0.0245361 199.578 0.0786667C198.813 0.182323 199.562 0.264706 201.241 0.26199C202.92 0.259724 203.545 0.175076 202.631 0.0741386ZM195.255 0.0773087C194.481 -0.0263519 193.337 -0.0236282 192.711 0.0836487C192.085 0.190926 192.718 0.27602 194.117 0.272854C195.516 0.26923 196.028 0.181416 195.255 0.0773087ZM128.606 0.0904388C128.116 -0.0236282 127.314 -0.0236282 126.825 0.0904388C126.335 0.204052 126.736 0.297295 127.715 0.297295C128.695 0.297295 129.095 0.204052 128.606 0.0904388ZM120.21 0.102654C119.86 -0.0231781 119.288 -0.0231781 118.938 0.102654C118.588 0.228039 118.874 0.330788 119.574 0.330788C120.274 0.330788 120.56 0.228039 120.21 0.102654Z" fill="#DFFF84" fill-opacity="0.7"/>
</svg>
