<svg width="61" height="48" viewBox="0 0 61 48" fill="none" xmlns="http://www.w3.org/2000/svg">
<path d="M14.7583 14.9624L3.93315 24.0003L14.7583 33.0383C14.9144 33.1643 15.0439 33.3203 15.1389 33.4971C15.2339 33.6739 15.2927 33.8678 15.3117 34.0676C15.3307 34.2674 15.3097 34.469 15.2497 34.6605C15.1897 34.852 15.0921 35.0296 14.9625 35.1829C14.8225 35.3598 14.6439 35.5024 14.4404 35.5997C14.2368 35.6971 14.0137 35.7466 13.7881 35.7446C13.4327 35.7436 13.089 35.617 12.8179 35.3871L0.563062 25.1748C0.387316 25.0336 0.245491 24.8548 0.14804 24.6515C0.0505899 24.4483 0 24.2257 0 24.0003C0 23.7749 0.0505899 23.5524 0.14804 23.3491C0.245491 23.1459 0.387316 22.9671 0.563062 22.8259L12.8179 12.6135C13.1334 12.4047 13.5149 12.3199 13.8891 12.3756C14.2633 12.4313 14.6037 12.6235 14.8446 12.9152C15.0856 13.2068 15.2101 13.5773 15.1941 13.9553C15.1782 14.3333 15.0229 14.692 14.7583 14.9624ZM59.6928 22.8259L47.4379 12.6135C47.1225 12.4047 46.7409 12.3199 46.3667 12.3756C45.9925 12.4313 45.6522 12.6235 45.4112 12.9152C45.1703 13.2068 45.0458 13.5773 45.0617 13.9553C45.0777 14.3333 45.2329 14.692 45.4976 14.9624L56.3227 24.0003L45.4976 33.0383C45.3414 33.1643 45.212 33.3203 45.117 33.4971C45.0219 33.6739 44.9632 33.8678 44.9441 34.0676C44.9251 34.2674 44.9462 34.469 45.0062 34.6605C45.0661 34.852 45.1638 35.0296 45.2933 35.1829C45.4334 35.3598 45.612 35.5024 45.8155 35.5997C46.019 35.6971 46.2421 35.7466 46.4678 35.7446C46.8232 35.7436 47.1668 35.617 47.4379 35.3871L59.6928 25.1748C59.8685 25.0336 60.0104 24.8548 60.1078 24.6515C60.2053 24.4483 60.2559 24.2257 60.2559 24.0003C60.2559 23.7749 60.2053 23.5524 60.1078 23.3491C60.0104 23.1459 59.8685 22.9671 59.6928 22.8259ZM38.834 0.103338C38.6465 0.0300605 38.4462 -0.00489096 38.245 0.00055039C38.0437 0.00599174 37.8456 0.0517151 37.6624 0.135018C37.4791 0.218321 37.3144 0.337513 37.178 0.485552C37.0415 0.63359 36.9362 0.807473 36.8681 0.996922L20.5283 45.9314C20.4556 46.1205 20.4218 46.3224 20.4289 46.5249C20.4361 46.7273 20.484 46.9263 20.5698 47.1098C20.6556 47.2934 20.7775 47.4577 20.9283 47.593C21.0791 47.7283 21.2557 47.8318 21.4474 47.8973C21.6075 47.97 21.7822 48.0049 21.958 47.9994C22.271 48.0059 22.5779 47.913 22.8348 47.7341C23.0917 47.5552 23.2853 47.2995 23.3878 47.0037L39.7276 2.06922C39.8009 1.88172 39.8358 1.68144 39.8304 1.4802C39.8249 1.27896 39.7792 1.08086 39.6959 0.897593C39.6126 0.714327 39.4934 0.549617 39.3454 0.413197C39.1973 0.276778 39.0234 0.171417 38.834 0.103338Z" fill="black"/>
</svg>
