<svg width="48" height="48" viewBox="0 0 48 48" fill="none" xmlns="http://www.w3.org/2000/svg">
<path d="M21.0001 5.9999C18.711 5.9999 16.575 6.6389 14.754 7.7519C14.5658 6.74513 14.2228 5.77361 13.737 4.87189C16.0209 3.60799 18.5951 2.96196 21.2051 2.99765C23.8152 3.03334 26.3707 3.74952 28.6192 5.07539C30.8677 6.40127 32.7313 8.29095 34.0257 10.5577C35.3202 12.8244 36.0007 15.3896 36.0001 17.9999H43.5031C44.6961 18.0007 45.8399 18.4752 46.6832 19.319C47.5264 20.1628 48.0001 21.307 48.0001 22.4999V40.5C48.0001 41.6935 47.526 42.8381 46.6821 43.682C45.8382 44.5259 44.6936 45 43.5001 45H25.5001C24.3066 45 23.162 44.5259 22.3181 43.682C21.4742 42.8381 21.0001 41.6935 21.0001 40.5V33C18.9132 33.0026 16.8489 32.5683 14.94 31.725C14.979 30.705 15 29.634 15 28.5V28.395C16.764 29.415 18.813 30 21.0001 30V22.4999C21.0001 21.3065 21.4742 20.1619 22.3181 19.3179C23.162 18.474 24.3066 17.9999 25.5001 17.9999H33.0001C33.0001 14.8173 31.7358 11.7651 29.4854 9.51462C27.2349 7.26418 24.1827 5.9999 21.0001 5.9999ZM35.7001 20.9999C35.11 23.8816 33.6867 26.5266 31.6067 28.6066C29.5267 30.6865 26.8818 32.1099 24.0001 32.7V40.5C24.0001 40.8978 24.1581 41.2793 24.4394 41.5606C24.7207 41.842 25.1022 42 25.5001 42H43.5001C43.8979 42 44.2795 41.842 44.5608 41.5606C44.8421 41.2793 45.0001 40.8978 45.0001 40.5V22.4999C45.0001 22.1021 44.8421 21.7206 44.5608 21.4393C44.2795 21.158 43.8979 20.9999 43.5001 20.9999H35.7001ZM32.6221 20.9999H25.5001C25.1022 20.9999 24.7207 21.158 24.4394 21.4393C24.1581 21.7206 24.0001 22.1021 24.0001 22.4999V29.622C26.0755 29.0843 27.9694 28.0013 29.4854 26.4853C31.0014 24.9693 32.0844 23.0754 32.6221 20.9999ZM7.74302 0.374881C7.99203 0.592687 8.16205 0.886704 8.22662 1.21117C8.29119 1.53563 8.24668 1.87234 8.10002 2.16889C8.07462 2.25665 8.0615 2.34752 8.06102 2.43889C8.06102 2.62789 8.10902 2.98789 8.56202 3.43789C8.78102 3.65689 8.94902 3.81289 9.13202 3.98389C9.28202 4.12189 9.44103 4.26589 9.64203 4.46389C10.032 4.83589 10.443 5.27389 10.812 5.82289C11.577 6.9719 12 8.4089 12 10.4999C12 13.0589 11.052 15.2399 9.57302 16.5779L9.76503 16.7999C10.605 17.8319 11.094 19.1699 11.4 20.4899C12 23.0999 12 26.2379 12 28.425V28.5C12 36.861 10.863 41.604 9.61203 44.316C8.98202 45.681 8.31302 46.551 7.73402 47.097C7.49862 47.3228 7.23906 47.522 6.96002 47.691C6.83225 47.7679 6.69887 47.8351 6.56102 47.892C6.56102 47.892 6.22202 48 6.00002 48C5.77802 48 5.43901 47.892 5.43901 47.892C5.29966 47.8384 5.166 47.7711 5.04001 47.691C4.76098 47.522 4.50141 47.3228 4.26601 47.097C3.68701 46.548 3.01801 45.681 2.38801 44.316C1.137 41.604 0 36.861 0 28.5V28.425C0 26.2349 1.34111e-07 23.0999 0.600002 20.4899C0.906003 19.1699 1.395 17.8319 2.23501 16.7999C2.29501 16.7249 2.36101 16.6499 2.42701 16.5779C0.948003 15.2399 0 13.0589 0 10.4999C0 9.5219 0.261001 8.3549 0.621002 7.2779C0.981003 6.1979 1.485 5.08189 2.06701 4.18189C2.76001 3.01189 3.73501 2.03088 4.49101 1.37088C4.90549 1.00637 5.33804 0.662936 5.78701 0.341881L5.87702 0.281881L5.90402 0.26088L5.91302 0.25488L5.91902 0.251881C6.1941 0.0685102 6.52207 -0.0188433 6.85192 0.00340018C7.18178 0.0256436 7.49504 0.156237 7.74302 0.374881ZM6.00002 14.9999C7.16102 14.9969 9.00002 13.7099 9.00002 10.4999C9.00002 8.8409 8.67302 8.0279 8.31302 7.4879C8.09414 7.1725 7.84166 6.88179 7.56002 6.6209L7.18802 6.2729C6.94502 6.0449 6.66002 5.78089 6.43802 5.56189C6.1099 5.2372 5.82824 4.86871 5.60102 4.46689C5.21915 4.86841 4.88308 5.31113 4.59901 5.78689C4.17901 6.4319 3.77101 7.3169 3.46801 8.2289C3.15601 9.1589 3.00001 9.98091 3.00001 10.4999C3.00001 13.7159 4.84501 14.9999 6.00002 14.9999ZM4.56001 18.6959C4.13401 19.2149 3.78001 20.0429 3.52201 21.1649C3.00601 23.4089 3.00001 26.2289 3.00001 28.5C3.00001 36.639 4.11301 40.896 5.11201 43.059C5.44201 43.77 5.75102 44.244 6.00002 44.559C6.35447 44.096 6.65257 43.5924 6.88802 43.059C7.88702 40.896 9.00002 36.639 9.00002 28.5C9.00002 26.2289 8.99402 23.4089 8.47502 21.1649C8.21702 20.0429 7.86302 19.2149 7.44002 18.6959C7.27455 18.4717 7.05696 18.2912 6.80606 18.1699C6.55517 18.0486 6.27851 17.9903 6.00002 17.9999H5.99402C5.71648 17.991 5.44094 18.0497 5.19113 18.171C4.94132 18.2922 4.72473 18.4724 4.56001 18.6959Z" fill="black"/>
</svg>
