<svg width="49" height="48" viewBox="0 0 49 48" fill="none" xmlns="http://www.w3.org/2000/svg">
<path fill-rule="evenodd" clip-rule="evenodd" d="M9.7035 20.0004C9.7035 20.0004 10.7915 19.8537 12.3701 19.4324C16.5327 18.3217 24.1033 15.3071 24.1033 8.05655C24.1033 6.99864 23.8949 5.95109 23.4901 4.9737C23.0852 3.99631 22.4918 3.10824 21.7438 2.36018C20.9957 1.61212 20.1077 1.01873 19.1303 0.613885C18.1529 0.209038 17.1053 0.00066671 16.0474 0.00066671H8.15952C7.09298 -0.0130553 6.03432 0.185163 5.04499 0.583819C4.05565 0.982476 3.15534 1.57363 2.39628 2.32299C1.63721 3.07235 1.03452 3.96499 0.623172 4.94911C0.211821 5.93324 0 6.98925 0 8.05589C0 9.12252 0.211821 10.1785 0.623172 11.1627C1.03452 12.1468 1.63721 13.0394 2.39628 13.7888C3.15534 14.5381 4.05565 15.1293 5.04499 15.528C6.03432 15.9266 7.09298 16.1248 8.15952 16.1111H9.7035V20.0004ZM12.3701 13.4445H8.15952C7.44475 13.4557 6.73489 13.3247 6.07126 13.0589C5.40763 12.7931 4.80351 12.398 4.29407 11.8965C3.78462 11.395 3.38004 10.7972 3.10388 10.1378C2.82772 9.47847 2.6855 8.77075 2.6855 8.05589C2.6855 7.34103 2.82772 6.63331 3.10388 5.97395C3.38004 5.31458 3.78462 4.71675 4.29407 4.21525C4.80351 3.71376 5.40763 3.31863 6.07126 3.05288C6.73489 2.78712 7.44475 2.65605 8.15952 2.6673H16.0474C16.7551 2.6673 17.4559 2.80669 18.1098 3.07753C18.7637 3.34836 19.3578 3.74533 19.8582 4.24577C20.3586 4.74621 20.7556 5.34032 21.0264 5.99417C21.2973 6.64803 21.4367 7.34883 21.4367 8.05655C21.4367 11.5005 19.026 13.7938 15.7448 15.3765C14.6557 15.8939 13.5273 16.3241 12.3701 16.6631V13.4445ZM11.4368 34.6669C14.3834 34.6669 16.7701 32.2802 16.7701 29.3336C16.7701 26.387 14.3834 24.0003 11.4368 24.0003C8.49019 24.0003 6.10355 26.387 6.10355 29.3336C6.10355 32.2802 8.49019 34.6669 11.4368 34.6669ZM14.1034 29.3336C14.1034 30.0408 13.8225 30.7191 13.3224 31.2192C12.8223 31.7193 12.144 32.0002 11.4368 32.0002C10.7296 32.0002 10.0513 31.7193 9.55122 31.2192C9.05113 30.7191 8.77018 30.0408 8.77018 29.3336C8.77018 28.6264 9.05113 27.9481 9.55122 27.448C10.0513 26.9479 10.7296 26.667 11.4368 26.667C12.144 26.667 12.8223 26.9479 13.3224 27.448C13.8225 27.9481 14.1034 28.6264 14.1034 29.3336ZM0.103637 43.0227C0.103637 39.2388 7.6542 37.3335 11.4368 37.3335C15.2194 37.3335 22.77 39.2401 22.77 43.0227V48H0.103637V43.0227ZM2.77027 45.3334V43.0227C2.77027 43.0094 2.77027 42.9827 2.80493 42.9161C2.8476 42.8334 2.94493 42.6881 3.15559 42.4934C3.59425 42.0867 4.32891 41.6428 5.34623 41.2334C7.3862 40.4134 9.8795 40.0001 11.4368 40.0001C12.9928 40.0001 15.4888 40.4134 17.5274 41.2334C18.5434 41.6428 19.2794 42.0867 19.718 42.4934C19.9287 42.6881 20.026 42.8334 20.0687 42.9147C20.1034 42.9814 20.1034 43.0107 20.1034 43.0214V45.3334H2.77027ZM42.1031 29.3336C42.1031 32.2802 39.7164 34.6669 36.7698 34.6669C33.8232 34.6669 31.4365 32.2802 31.4365 29.3336C31.4365 26.387 33.8232 24.0003 36.7698 24.0003C39.7164 24.0003 42.1031 26.387 42.1031 29.3336ZM36.7698 32.0002C37.477 32.0002 38.1553 31.7193 38.6554 31.2192C39.1555 30.7191 39.4364 30.0408 39.4364 29.3336C39.4364 28.6264 39.1555 27.9481 38.6554 27.448C38.1553 26.9479 37.477 26.667 36.7698 26.667C36.0626 26.667 35.3843 26.9479 34.8842 27.448C34.3841 27.9481 34.1032 28.6264 34.1032 29.3336C34.1032 30.0408 34.3841 30.7191 34.8842 31.2192C35.3843 31.7193 36.0626 32.0002 36.7698 32.0002ZM25.4366 43.0227C25.4366 39.2388 32.9872 37.3335 36.7698 37.3335C40.5524 37.3335 48.103 39.2401 48.103 43.0227V48H25.4366V43.0227ZM28.1032 45.3334V43.0227C28.1032 43.0094 28.1032 42.9827 28.1379 42.9161C28.1806 42.8334 28.2779 42.6881 28.4872 42.4934C28.9272 42.0867 29.6632 41.6428 30.6792 41.2334C32.7192 40.4134 35.2125 40.0001 36.7698 40.0001C38.3258 40.0001 40.8217 40.4134 42.8604 41.2334C43.8764 41.6428 44.6124 42.0867 45.0523 42.4934C45.2617 42.6881 45.359 42.8334 45.4017 42.9147C45.4363 42.9814 45.4363 43.0107 45.4363 43.0214V45.3334H28.1032ZM36.9031 20.675C38.4631 21.1657 39.5698 21.3337 39.5698 21.3337V17.4444H40.0471C41.1136 17.4581 42.1723 17.2599 43.1616 16.8613C44.151 16.4626 45.0513 15.8715 45.8103 15.1221C46.5694 14.3727 47.1721 13.4801 47.5834 12.496C47.9948 11.5119 48.2066 10.4558 48.2066 9.3892C48.2066 8.32257 47.9948 7.26655 47.5834 6.28243C47.1721 5.2983 46.5694 4.40566 45.8103 3.65631C45.0513 2.90695 44.151 2.31579 43.1616 1.91713C42.1723 1.51848 41.1136 1.32026 40.0471 1.33398H34.8258C32.6893 1.33398 30.6402 2.18272 29.1294 3.6935C27.6187 5.20427 26.7699 7.25331 26.7699 9.38987C26.7699 16.4511 33.1525 19.4964 36.9031 20.675ZM40.0471 14.7778H36.9031V17.8618C36.0565 17.5594 35.2338 17.1939 34.4418 16.7684C31.6632 15.2605 29.4366 12.9978 29.4366 9.38854C29.4369 7.95945 30.0049 6.58901 31.0155 5.57862C32.0262 4.56822 33.3967 4.00061 34.8258 4.00061H40.0471C40.7619 3.98937 41.4717 4.12044 42.1353 4.38619C42.799 4.65195 43.4031 5.04708 43.9125 5.54857C44.422 6.05006 44.8266 6.6479 45.1027 7.30726C45.3789 7.96662 45.5211 8.67434 45.5211 9.3892C45.5211 10.1041 45.3789 10.8118 45.1027 11.4711C44.8266 12.1305 44.422 12.7283 43.9125 13.2298C43.4031 13.7313 42.799 14.1265 42.1353 14.3922C41.4717 14.658 40.7619 14.789 40.0471 14.7778Z" fill="black"/>
</svg>
