<svg width="56" height="50" viewBox="0 0 56 50" fill="none" xmlns="http://www.w3.org/2000/svg">
<g opacity="0.8">
<path d="M47.6667 11.6667C45.4698 8.37866 42.4945 5.68443 39.0053 3.82352C35.5161 1.96262 31.6212 0.992715 27.6668 1.00004C23.7192 0.997628 19.8321 1.96998 16.3505 3.83076C12.869 5.69154 9.90082 8.38317 7.70947 11.6667" stroke="black" stroke-width="2" stroke-linecap="round" stroke-linejoin="round"/>
<path d="M26.3334 1C24.2551 4.3296 22.6183 7.91518 21.4641 11.6666M29.0001 1C31.0803 4.32933 32.7189 7.91491 33.8748 11.6666M47.6667 38.3333C45.4698 41.6213 42.4945 44.3155 39.0053 46.1764C35.5161 48.0373 31.6212 49.0072 27.6668 48.9999C23.7192 49.0023 19.8321 48.03 16.3505 46.1692C12.869 44.3084 9.90082 41.6168 7.70947 38.3333" stroke="black" stroke-width="2" stroke-linecap="round" stroke-linejoin="round"/>
<path d="M26.3333 48.9998C24.255 45.6702 22.6182 42.0846 21.464 38.3331M29 48.9998C31.0801 45.6705 32.7187 42.0849 33.8746 38.3331M1 19.6665L3.66666 30.3332L7.66666 19.6665L11.6666 30.3332L14.3333 19.6665M40.9999 19.6665L43.6666 30.3332L47.6666 19.6665L51.6666 30.3332L54.3332 19.6665M21 19.6665L23.6666 30.3332L27.6666 19.6665L31.6666 30.3332L34.3333 19.6665" stroke="black" stroke-width="2" stroke-linecap="round" stroke-linejoin="round"/>
</g>
</svg>
