<svg width="48" height="48" viewBox="0 0 48 48" fill="none" xmlns="http://www.w3.org/2000/svg">
<path fill-rule="evenodd" clip-rule="evenodd" d="M18.1682 1.29773C18.1682 0.953549 18.3049 0.623467 18.5483 0.380096C18.7917 0.136725 19.1218 0 19.4659 0H24.6569C25.001 0 25.3311 0.136725 25.5745 0.380096C25.8179 0.623467 25.9546 0.953549 25.9546 1.29773C25.9546 1.64191 25.8179 1.97199 25.5745 2.21536C25.3311 2.45873 25.001 2.59546 24.6569 2.59546H19.4659C19.1218 2.59546 18.7917 2.45873 18.5483 2.21536C18.3049 1.97199 18.1682 1.64191 18.1682 1.29773Z" fill="black"/>
<path fill-rule="evenodd" clip-rule="evenodd" d="M22.0614 0C22.4056 0 22.7356 0.136725 22.979 0.380096C23.2224 0.623467 23.3591 0.953549 23.3591 1.29773V6.48864C23.3591 6.83282 23.2224 7.1629 22.979 7.40627C22.7356 7.64964 22.4056 7.78637 22.0614 7.78637C21.7172 7.78637 21.3871 7.64964 21.1437 7.40627C20.9004 7.1629 20.7637 6.83282 20.7637 6.48864V1.29773C20.7637 0.953549 20.9004 0.623467 21.1437 0.380096C21.3871 0.136725 21.7172 0 22.0614 0ZM1.29773 18.1682C1.64191 18.1682 1.97199 18.3049 2.21536 18.5483C2.45873 18.7917 2.59546 19.1217 2.59546 19.4659V24.6568C2.59546 25.001 2.45873 25.3311 2.21536 25.5745C1.97199 25.8178 1.64191 25.9546 1.29773 25.9546C0.953549 25.9546 0.623467 25.8178 0.380096 25.5745C0.136725 25.3311 0 25.001 0 24.6568V19.4659C0 19.1217 0.136725 18.7917 0.380096 18.5483C0.623467 18.3049 0.953549 18.1682 1.29773 18.1682Z" fill="black"/>
<path fill-rule="evenodd" clip-rule="evenodd" d="M0 22.0612C0 21.717 0.136725 21.3869 0.380096 21.1436C0.623467 20.9002 0.953549 20.7635 1.29773 20.7635H6.48864C6.83282 20.7635 7.1629 20.9002 7.40627 21.1436C7.64964 21.3869 7.78637 21.717 7.78637 22.0612C7.78637 22.4054 7.64964 22.7355 7.40627 22.9788C7.1629 23.2222 6.83282 23.3589 6.48864 23.3589H1.29773C0.953549 23.3589 0.623467 23.2222 0.380096 22.9788C0.136725 22.7355 0 22.4054 0 22.0612ZM33.9901 4.62621C34.1106 4.50555 34.2537 4.40983 34.4113 4.34453C34.5688 4.27922 34.7377 4.24561 34.9082 4.24561C35.0788 4.24561 35.2477 4.27922 35.4052 4.34453C35.5627 4.40983 35.7059 4.50555 35.8264 4.62621L39.4964 8.29619C39.7399 8.53952 39.8767 8.86962 39.8769 9.21387C39.877 9.55812 39.7403 9.88832 39.497 10.1318C39.2537 10.3753 38.9236 10.5122 38.5793 10.5123C38.2351 10.5124 37.9049 10.3758 37.6614 10.1325L33.9901 6.4612C33.7468 6.21784 33.6101 5.88782 33.6101 5.54371C33.6101 5.1996 33.7468 4.86957 33.9901 4.62621Z" fill="black"/>
<path fill-rule="evenodd" clip-rule="evenodd" d="M37.66 6.4625C37.9029 6.7058 38.0393 7.03555 38.0393 7.37934C38.0393 7.72313 37.9029 8.05288 37.66 8.29619L33.99 11.9675C33.7453 12.2039 33.4175 12.3347 33.0772 12.3317C32.737 12.3287 32.4115 12.1923 32.1709 11.9517C31.9303 11.711 31.7938 11.3856 31.7908 11.0453C31.7879 10.705 31.9187 10.3772 32.1551 10.1325L35.8263 6.4612C36.0697 6.21791 36.3997 6.08124 36.7438 6.08124C37.0879 6.08124 37.418 6.21791 37.6613 6.4612L37.66 6.4625ZM10.1326 4.62621C10.3759 4.86957 10.5126 5.1996 10.5126 5.54371C10.5126 5.88782 10.3759 6.21784 10.1326 6.4612L6.46134 10.1325C6.21783 10.3758 5.88763 10.5124 5.54338 10.5123C5.19913 10.5122 4.86903 10.3753 4.6257 10.1318C4.38236 9.88832 4.24573 9.55812 4.24585 9.21387C4.24597 8.86962 4.38284 8.53952 4.62635 8.29619L8.29632 4.62621C8.41685 4.50555 8.55997 4.40983 8.71751 4.34453C8.87505 4.27922 9.04392 4.24561 9.21447 4.24561C9.38501 4.24561 9.55388 4.27922 9.71142 4.34453C9.86896 4.40983 10.0121 4.50555 10.1326 4.62621Z" fill="black"/>
<path fill-rule="evenodd" clip-rule="evenodd" d="M6.46254 6.46232C6.70584 6.21943 7.03559 6.08301 7.37938 6.08301C7.72317 6.08301 8.05292 6.21943 8.29623 6.46232L11.9675 10.1323C12.2039 10.377 12.3347 10.7049 12.3317 11.0451C12.3288 11.3854 12.1923 11.7109 11.9517 11.9515C11.7111 12.1921 11.3856 12.3286 11.0453 12.3315C10.7051 12.3345 10.3773 12.2037 10.1325 11.9673L6.46124 8.29601C6.21795 8.05265 6.08128 7.72262 6.08128 7.37851C6.08128 7.0344 6.21795 6.70438 6.46124 6.46102L6.46254 6.46232ZM10.1325 39.496C10.012 39.6166 9.86886 39.7124 9.71132 39.7777C9.55378 39.843 9.38491 39.8766 9.21437 39.8766C9.04383 39.8766 8.87496 39.843 8.71742 39.7777C8.55988 39.7124 8.41675 39.6166 8.29623 39.496L4.62625 35.826C4.38986 35.5813 4.25906 35.2534 4.26201 34.9132C4.26497 34.5729 4.40145 34.2474 4.64206 34.0068C4.88267 33.7662 5.20815 33.6297 5.54841 33.6268C5.88868 33.6238 6.21648 33.7546 6.46124 33.991L10.1325 37.661C10.3758 37.9044 10.5125 38.2344 10.5125 38.5785C10.5125 38.9226 10.3758 39.2526 10.1325 39.496Z" fill="black"/>
<path fill-rule="evenodd" clip-rule="evenodd" d="M6.46281 37.66C6.21992 37.4167 6.0835 37.0869 6.0835 36.7431C6.0835 36.3993 6.21992 36.0696 6.46281 35.8263L10.1328 32.155C10.3763 31.9117 10.7065 31.775 11.0507 31.7752C11.395 31.7753 11.7251 31.9121 11.9684 32.1557C12.2118 32.3992 12.3484 32.7294 12.3483 33.0736C12.3481 33.4179 12.2113 33.748 11.9678 33.9913L8.2965 37.6613C8.05314 37.9046 7.72311 38.0412 7.379 38.0412C7.03489 38.0412 6.70487 37.9046 6.46151 37.6613L6.46281 37.66ZM17.5195 16.8704C17.0032 16.8704 16.5081 17.0754 16.143 17.4405C15.7779 17.8056 15.5729 18.3007 15.5729 18.817C15.5729 19.3332 15.7779 19.8283 16.143 20.1934C16.5081 20.5585 17.0032 20.7635 17.5195 20.7635C18.0357 20.7635 18.5308 20.5585 18.8959 20.1934C19.261 19.8283 19.466 19.3332 19.466 18.817C19.466 18.3007 19.261 17.8056 18.8959 17.4405C18.5308 17.0754 18.0357 16.8704 17.5195 16.8704ZM12.9774 18.817C12.9774 17.6123 13.4559 16.457 14.3077 15.6052C15.1595 14.7534 16.3148 14.2749 17.5195 14.2749C18.7241 14.2749 19.8794 14.7534 20.7312 15.6052C21.583 16.457 22.0615 17.6123 22.0615 18.817C22.0615 20.0216 21.583 21.1769 20.7312 22.0287C19.8794 22.8805 18.7241 23.359 17.5195 23.359C16.3148 23.359 15.1595 22.8805 14.3077 22.0287C13.4559 21.1769 12.9774 20.0216 12.9774 18.817ZM33.0922 24.6567C30.855 24.6567 28.7095 25.5454 27.1276 27.1274C25.5457 28.7093 24.657 30.8548 24.657 33.092C24.657 35.3291 25.5457 37.4747 27.1276 39.0566C28.7095 40.6385 30.855 41.5272 33.0922 41.5272C35.3294 41.5272 37.4749 40.6385 39.0568 39.0566C40.6387 37.4747 41.5274 35.3291 41.5274 33.092C41.5274 30.8548 40.6387 28.7093 39.0568 27.1274C37.4749 25.5454 35.3294 24.6567 33.0922 24.6567ZM22.0615 33.092C22.0615 30.1664 23.2237 27.3607 25.2923 25.2921C27.361 23.2234 30.1667 22.0613 33.0922 22.0613C36.0177 22.0613 38.8234 23.2234 40.8921 25.2921C42.9607 27.3607 44.1229 30.1664 44.1229 33.092C44.1229 36.0175 42.9607 38.8232 40.8921 40.8918C38.8234 42.9605 36.0177 44.1227 33.0922 44.1227C30.1667 44.1227 27.361 42.9605 25.2923 40.8918C23.2237 38.8232 22.0615 36.0175 22.0615 33.092Z" fill="black"/>
<path fill-rule="evenodd" clip-rule="evenodd" d="M39.312 39.3122C39.5553 39.0689 39.8853 38.9323 40.2295 38.9323C40.5736 38.9323 40.9036 39.0689 41.147 39.3122L47.6356 45.8009C47.872 46.0456 48.0028 46.3734 47.9998 46.7137C47.9969 47.0539 47.8604 47.3794 47.6198 47.62C47.3792 47.8606 47.0537 47.9971 46.7134 48.0001C46.3732 48.003 46.0454 47.8722 45.8006 47.6358L39.312 41.1472C39.0687 40.9038 38.932 40.5738 38.932 40.2297C38.932 39.8856 39.0687 39.5556 39.312 39.3122ZM22.0613 9.08423C14.8939 9.08423 9.08398 14.8942 9.08398 22.0615C9.08398 28.4204 13.6598 33.7151 19.6994 34.8247C19.8695 34.8526 20.0324 34.9142 20.1784 35.0058C20.3245 35.0974 20.4508 35.2172 20.55 35.3581C20.6493 35.4991 20.7194 35.6584 20.7564 35.8268C20.7934 35.9952 20.7965 36.1693 20.7654 36.3388C20.7344 36.5084 20.6699 36.6701 20.5757 36.8145C20.4814 36.9589 20.3594 37.083 20.2167 37.1797C20.0739 37.2764 19.9134 37.3436 19.7443 37.3776C19.5753 37.4115 19.4012 37.4114 19.2322 37.3773C11.9805 36.0458 6.48853 29.696 6.48853 22.0615C6.48853 13.4615 13.4612 6.48877 22.0613 6.48877C29.6958 6.48877 36.0456 11.9821 37.3771 19.2325C37.4322 19.5681 37.3534 19.9119 37.1576 20.19C36.9618 20.4681 36.6647 20.6582 36.3301 20.7195C35.9956 20.7807 35.6504 20.7081 35.3688 20.5174C35.0872 20.3267 34.8917 20.033 34.8244 19.6996C33.7149 13.6613 28.4214 9.08423 22.0613 9.08423Z" fill="black"/>
</svg>
