<svg width="55" height="48" viewBox="0 0 55 48" fill="none" xmlns="http://www.w3.org/2000/svg">
<path d="M38.2979 19.4043H50.5532C51.5012 19.4043 52.4104 19.0277 53.0807 18.3573C53.7511 17.687 54.1277 16.7778 54.1277 15.8298V3.57447C54.1277 2.62646 53.7511 1.71728 53.0807 1.04694C52.4104 0.376595 51.5012 0 50.5532 0H38.2979C37.3499 0 36.4407 0.376595 35.7703 1.04694C35.1 1.71728 34.7234 2.62646 34.7234 3.57447V8.17021H32.1702C30.1408 8.17694 28.1965 8.98609 26.7615 10.4211C25.3265 11.8561 24.5174 13.8004 24.5106 15.8298V22.4681H17.3617V18.8936C17.3617 17.9456 16.9851 17.0364 16.3148 16.3661C15.6444 15.6957 14.7352 15.3191 13.7872 15.3191H3.57447C2.62646 15.3191 1.71728 15.6957 1.04694 16.3661C0.376595 17.0364 0 17.9456 0 18.8936V29.1064C0 30.0544 0.376595 30.9636 1.04694 31.6339C1.71728 32.3043 2.62646 32.6809 3.57447 32.6809H13.7872C14.7352 32.6809 15.6444 32.3043 16.3148 31.6339C16.9851 30.9636 17.3617 30.0544 17.3617 29.1064V25.5319H24.5106V32.1702C24.5174 34.1996 25.3265 36.1439 26.7615 37.5789C28.1965 39.0139 30.1408 39.8231 32.1702 39.8298H34.7234V44.4255C34.7234 45.3735 35.1 46.2827 35.7703 46.9531C36.4407 47.6234 37.3499 48 38.2979 48H50.5532C51.5012 48 52.4104 47.6234 53.0807 46.9531C53.7511 46.2827 54.1277 45.3735 54.1277 44.4255V32.1702C54.1277 31.2222 53.7511 30.313 53.0807 29.6427C52.4104 28.9723 51.5012 28.5957 50.5532 28.5957H38.2979C37.3499 28.5957 36.4407 28.9723 35.7703 29.6427C35.1 30.313 34.7234 31.2222 34.7234 32.1702V36.766H32.1702C30.9534 36.7593 29.7884 36.2729 28.9279 35.4125C28.0675 34.5521 27.5812 33.387 27.5745 32.1702V15.8298C27.5812 14.613 28.0675 13.4479 28.9279 12.5875C29.7884 11.7271 30.9534 11.2407 32.1702 11.234H34.7234V15.8298C34.7234 16.7778 35.1 17.687 35.7703 18.3573C36.4407 19.0277 37.3499 19.4043 38.2979 19.4043ZM14.2979 29.1064C14.2979 29.2418 14.2441 29.3717 14.1483 29.4675C14.0525 29.5632 13.9227 29.617 13.7872 29.617H3.57447C3.43904 29.617 3.30916 29.5632 3.21339 29.4675C3.11763 29.3717 3.06383 29.2418 3.06383 29.1064V18.8936C3.06383 18.7582 3.11763 18.6283 3.21339 18.5325C3.30916 18.4368 3.43904 18.383 3.57447 18.383H13.7872C13.9227 18.383 14.0525 18.4368 14.1483 18.5325C14.2441 18.6283 14.2979 18.7582 14.2979 18.8936V29.1064ZM37.7872 32.1702C37.7872 32.0348 37.841 31.9049 37.9368 31.8091C38.0326 31.7134 38.1624 31.6596 38.2979 31.6596H50.5532C50.6886 31.6596 50.8185 31.7134 50.9143 31.8091C51.01 31.9049 51.0638 32.0348 51.0638 32.1702V44.4255C51.0638 44.561 51.01 44.6908 50.9143 44.7866C50.8185 44.8824 50.6886 44.9362 50.5532 44.9362H38.2979C38.1624 44.9362 38.0326 44.8824 37.9368 44.7866C37.841 44.6908 37.7872 44.561 37.7872 44.4255V32.1702ZM37.7872 3.57447C37.7872 3.43904 37.841 3.30916 37.9368 3.21339C38.0326 3.11763 38.1624 3.06383 38.2979 3.06383H50.5532C50.6886 3.06383 50.8185 3.11763 50.9143 3.21339C51.01 3.30916 51.0638 3.43904 51.0638 3.57447V15.8298C51.0638 15.9652 51.01 16.0951 50.9143 16.1909C50.8185 16.2866 50.6886 16.3404 50.5532 16.3404H38.2979C38.1624 16.3404 38.0326 16.2866 37.9368 16.1909C37.841 16.0951 37.7872 15.9652 37.7872 15.8298V3.57447Z" fill="black"/>
</svg>
